<?xml version="1.0" encoding="UTF-8" standalone="no"?>
<!-- Created with Inkscape (http://www.inkscape.org/) -->

<svg
   width="284.31638"
   height="429.83472"
   viewBox="0 0 75.225371 113.7271"
   version="1.1"
   id="svg1"
   xmlns="http://www.w3.org/2000/svg"
   xmlns:svg="http://www.w3.org/2000/svg">
  <defs
     id="defs1" />
  <g
     id="layer1"
     transform="translate(-2.0748132,-14.78007)">
    <g
       id="g1"
       transform="translate(2.1652793,-0.94409017)">
      <path
         id="path1"
         style="fill:#000000;fill-opacity:1;stroke:none;stroke-width:1.05833;stroke-linecap:round;stroke-linejoin:round;stroke-dasharray:none;stroke-opacity:1"
         transform="translate(20.131944,53.322568)"
         d="m 55.002962,60.548674 c 0,2.556291 -10.722655,3.954593 -16.991436,6.147949 -6.268781,2.193357 -20.62125,9.432067 -20.62125,9.432067 0,0 -12.1600271,-7.237399 -18.806343,-9.513402 -6.0411468,-2.068766 -18.806343,-3.502609 -18.806343,-6.066614 v -85.720278 c 0,0 23.1355565,-12.426805 37.612686,-12.426805 14.47713,0 37.612686,12.426805 37.612686,12.426805 z" />
    </g>
  </g>
</svg>


<svg height="0" width="0">
	<defs>
		<clipPath id="svgPath">
			<path fill="#FFFFFF" stroke="#000000" stroke-width="1.5794" stroke-miterlimit="10"
      d="m 55.002962,60.548674 c 0,2.556291 -10.722655,3.954593 -16.991436,6.147949 -6.268781,2.193357 -20.62125,9.432067 -20.62125,9.432067 0,0 -12.1600271,-7.237399 -18.806343,-9.513402 -6.0411468,-2.068766 -18.806343,-3.502609 -18.806343,-6.066614 v -85.720278 c 0,0 23.1355565,-12.426805 37.612686,-12.426805 14.47713,0 37.612686,12.426805 37.612686,12.426805 z" />
	</defs>
</svg>